<?xml version="1.0" encoding="iso-8859-1"?>
<!-- Generator: Adobe Illustrator 19.0.0, SVG Export Plug-In . SVG Version: 6.00 Build 0)  -->
<svg xmlns="http://www.w3.org/2000/svg" xmlns:xlink="http://www.w3.org/1999/xlink" version="1.1" id="Capa_1" x="0px" y="0px" viewBox="0 0 512 512" style="enable-background:new 0 0 512 512;" xml:space="preserve" width="512px" height="512px">
<g>
	<g>
		<path d="M256,216.071c-52.925,0-95.977,43.056-95.977,95.977c0,52.925,43.052,95.977,95.977,95.977s95.977-43.051,95.977-95.977    C351.977,259.128,308.925,216.071,256,216.071z M256,400.029c-48.512,0-87.979-39.467-87.979-87.979    c0-48.512,39.467-87.979,87.979-87.979c48.512,0,87.979,39.467,87.979,87.979C343.979,360.561,304.512,400.029,256,400.029z" fill="#FFFFFF"/>
	</g>
</g>
<g>
	<g>
		<path d="M246.299,324.772c-1.811-1.273-4.303-0.836-5.568,0.976l-27.993,39.99c-1.274,1.812-0.828,4.304,0.976,5.569    c0.702,0.493,1.499,0.727,2.296,0.727c1.258,0,2.499-0.594,3.273-1.704l27.993-39.99    C248.549,328.529,248.104,326.037,246.299,324.772z" fill="#FFFFFF"/>
	</g>
</g>
<g>
	<g>
		<path d="M252.876,333.754l-5.593-7.998c-1.281-1.819-3.78-2.233-5.569-0.991c-1.812,1.264-2.258,3.764-0.992,5.568l5.592,7.998    c0.781,1.117,2.024,1.711,3.281,1.711c0.797,0,1.593-0.234,2.289-0.719C253.696,338.059,254.141,335.559,252.876,333.754z" fill="#FFFFFF"/>
	</g>
</g>
<g>
	<g>
		<path d="M306.284,284.782c-1.811-1.273-4.311-0.836-5.568,0.976l-55.986,79.98c-1.274,1.812-0.828,4.304,0.976,5.569    c0.702,0.493,1.499,0.727,2.296,0.727c1.258,0,2.499-0.594,3.273-1.704l55.986-79.98    C308.534,288.539,308.089,286.047,306.284,284.782z" fill="#FFFFFF"/>
	</g>
</g>
<g>
	<g>
		<path d="M335.254,325.75l-27.993-39.99c-1.264-1.812-3.757-2.249-5.569-0.976c-1.804,1.264-2.249,3.756-0.976,5.568l27.993,39.99    c0.773,1.109,2.014,1.703,3.272,1.703c0.797,0,1.593-0.234,2.296-0.726C336.082,330.055,336.527,327.562,335.254,325.75z" fill="#FFFFFF"/>
	</g>
</g>
<g>
	<g>
		<path d="M224.008,260.063c-11.028,0-19.995,8.967-19.995,19.995c0,11.028,8.967,19.995,19.995,19.995s19.995-8.967,19.995-19.995    C244.003,269.029,235.036,260.063,224.008,260.063z M224.008,292.055c-6.616,0-11.997-5.382-11.997-11.997    c0-6.615,5.381-11.997,11.997-11.997c6.615,0,11.997,5.382,11.997,11.997C236.005,286.672,230.623,292.055,224.008,292.055z" fill="#FFFFFF"/>
	</g>
</g>
<g>
	<g>
		<path d="M467.948,112.099H44.052c-2.21,0-3.999,1.789-3.999,3.999c0,2.21,1.789,3.999,3.999,3.999h423.896    c2.21,0,3.999-1.789,3.999-3.999C471.947,113.888,470.158,112.099,467.948,112.099z" fill="#FFFFFF"/>
	</g>
</g>
<g>
	<g>
		<path d="M467.948,112.099c-2.21,0-3.999,1.789-3.999,3.999v335.918c0,2.21,1.789,3.999,3.999,3.999    c2.21,0,3.999-1.789,3.999-3.999V116.097C471.947,113.888,470.158,112.099,467.948,112.099z" fill="#FFFFFF"/>
	</g>
</g>
<g>
	<g>
		<path d="M44.052,112.099c-2.21,0-3.999,1.789-3.999,3.999v335.918c0,2.21,1.789,3.999,3.999,3.999s3.999-1.789,3.999-3.999    V116.097C48.051,113.888,46.262,112.099,44.052,112.099z" fill="#FFFFFF"/>
	</g>
</g>
<g>
	<g>
		<path d="M100.038,504.003c-28.665,0-51.987-23.322-51.987-51.987c0-2.21-1.789-3.999-3.999-3.999s-3.999,1.789-3.999,3.999    c0,33.078,26.907,59.985,59.985,59.985c2.211,0,3.999-1.789,3.999-3.999C104.037,505.792,102.248,504.003,100.038,504.003z" fill="#FFFFFF"/>
	</g>
</g>
<g>
	<g>
		<path d="M467.948,448.016c-2.21,0-3.999,1.789-3.999,3.999c0,28.665-23.322,51.987-51.987,51.987c-2.21,0-3.999,1.789-3.999,3.999    c0,2.21,1.789,3.999,3.999,3.999c33.078,0,59.985-26.907,59.985-59.985C471.947,449.805,470.158,448.016,467.948,448.016z" fill="#FFFFFF"/>
	</g>
</g>
<g>
	<g>
		<path d="M411.962,504.003H100.038c-2.21,0-3.999,1.789-3.999,3.999c0,2.21,1.789,3.999,3.999,3.999h311.924    c2.21,0,3.999-1.789,3.999-3.999C415.961,505.792,414.172,504.003,411.962,504.003z" fill="#FFFFFF"/>
	</g>
</g>
<g>
	<g>
		<path d="M164.022,40.115c-2.21,0-3.999,1.789-3.999,3.999v63.985c0,2.21,1.789,3.999,3.999,3.999c2.211,0,3.999-1.789,3.999-4    V44.115C168.021,41.904,166.232,40.115,164.022,40.115z" fill="#FFFFFF"/>
	</g>
</g>
<g>
	<g>
		<path d="M196.015,40.115c-2.21,0-3.999,1.789-3.999,3.999v63.985c0,2.21,1.789,3.999,3.999,3.999s3.999-1.789,3.999-4V44.115    C200.014,41.904,198.225,40.115,196.015,40.115z" fill="#FFFFFF"/>
	</g>
</g>
<g>
	<g>
		<path d="M315.985,40.115c-2.21,0-3.999,1.789-3.999,3.999v63.985c0,2.21,1.789,3.999,3.999,3.999c2.21,0,3.999-1.789,3.999-4    V44.115C319.984,41.904,318.195,40.115,315.985,40.115z" fill="#FFFFFF"/>
	</g>
</g>
<g>
	<g>
		<path d="M347.978,40.115c-2.21,0-3.999,1.789-3.999,3.999v63.985c0,2.21,1.789,3.999,3.999,3.999c2.21,0,3.999-1.789,3.999-4    V44.115C351.977,41.904,350.188,40.115,347.978,40.115z" fill="#FFFFFF"/>
	</g>
</g>
<g>
	<g>
		<path d="M348.04,32.117H165.022c-2.211,0-3.999,1.789-3.999,3.999c0,2.21,1.788,3.999,3.999,3.999H348.04    c2.21,0,3.999-1.789,3.999-3.999C352.039,33.906,350.25,32.117,348.04,32.117z" fill="#FFFFFF"/>
	</g>
</g>
<g>
	<g>
		<path d="M198.967,1.172c-1.562-1.562-4.093-1.562-5.655,0l-32.117,32.117c-1.562,1.562-1.562,4.093,0,5.655    c0.781,0.781,1.804,1.172,2.827,1.172c1.024,0,2.047-0.39,2.828-1.172l32.117-32.118C200.529,5.264,200.529,2.733,198.967,1.172z" fill="#FFFFFF"/>
	</g>
</g>
<g>
	<g>
		<path d="M350.867,33.289L318.75,1.172c-1.561-1.562-4.092-1.562-5.654,0c-1.562,1.561-1.562,4.092,0,5.654l32.117,32.117    c0.781,0.781,1.804,1.172,2.827,1.172c1.023,0,2.046-0.39,2.827-1.171C352.429,37.383,352.429,34.852,350.867,33.289z" fill="#FFFFFF"/>
	</g>
</g>
<g>
	<g>
		<path d="M315.986,0H196.14c-2.211,0-3.999,1.789-3.999,3.999c0,2.21,1.789,3.999,3.999,3.999h119.845c2.21,0,4-1.789,4-3.999    C319.985,1.789,318.196,0,315.986,0z" fill="#FFFFFF"/>
	</g>
</g>
<g>
	<g>
		<path d="M60.048,160.086c-2.21,0-3.999,1.789-3.999,3.999v7.998c0,2.21,1.789,3.999,3.999,3.999c2.21,0,3.999-1.789,3.999-3.999    v-7.998C64.047,161.875,62.258,160.086,60.048,160.086z" fill="#FFFFFF"/>
	</g>
</g>
<g>
	<g>
		<g>
			<path d="M60.048,349.213c-2.21,0-3.999,1.788-3.999,3.999v16.473c0,2.21,1.789,3.998,3.999,3.998c2.21,0,3.999-1.788,3.999-3.998     v-16.473C64.047,351,62.258,349.213,60.048,349.213z" fill="#FFFFFF"/>
			<path d="M60.048,415.078c-2.21,0-3.999,1.789-3.999,3.999v16.465c0,2.21,1.789,3.999,3.999,3.999c2.21,0,3.999-1.789,3.999-3.999     v-16.465C64.047,416.867,62.258,415.078,60.048,415.078z" fill="#FFFFFF"/>
			<path d="M60.048,382.148c-2.21,0-3.999,1.789-3.999,4v16.464c0,2.211,1.789,3.999,3.999,3.999c2.21,0,3.999-1.788,3.999-3.999     v-16.464C64.047,383.938,62.258,382.148,60.048,382.148z" fill="#FFFFFF"/>
			<path d="M60.048,316.282c-2.21,0-3.999,1.788-3.999,3.999v16.465c0,2.21,1.789,3.999,3.999,3.999c2.21,0,3.999-1.789,3.999-3.999     v-16.465C64.047,318.07,62.258,316.282,60.048,316.282z" fill="#FFFFFF"/>
			<path d="M60.048,184.549c-2.21,0-3.999,1.788-3.999,3.999v16.465c0,2.21,1.789,3.999,3.999,3.999c2.21,0,3.999-1.789,3.999-3.999     v-16.465C64.047,186.337,62.258,184.549,60.048,184.549z" fill="#FFFFFF"/>
			<path d="M60.048,217.482c-2.21,0-3.999,1.789-3.999,3.999v16.465c0,2.21,1.789,3.999,3.999,3.999c2.21,0,3.999-1.789,3.999-3.999     v-16.465C64.047,219.271,62.258,217.482,60.048,217.482z" fill="#FFFFFF"/>
			<path d="M60.048,250.415c-2.21,0-3.999,1.789-3.999,3.999v16.465c0,2.211,1.789,3.999,3.999,3.999     c2.21,0,3.999-1.788,3.999-3.999v-16.465C64.047,252.204,62.258,250.415,60.048,250.415z" fill="#FFFFFF"/>
			<path d="M60.048,283.344c-2.21,0-3.999,1.789-3.999,3.999v16.473c0,2.211,1.789,3.999,3.999,3.999     c2.21,0,3.999-1.788,3.999-3.999v-16.473C64.047,285.133,62.258,283.344,60.048,283.344z" fill="#FFFFFF"/>
		</g>
	</g>
</g>
<g>
	<g>
		<path d="M60.048,448.016c-2.21,0-3.999,1.789-3.999,3.999v7.998c0,2.21,1.789,3.999,3.999,3.999c2.21,0,3.999-1.789,3.999-3.999    v-7.998C64.047,449.805,62.258,448.016,60.048,448.016z" fill="#FFFFFF"/>
	</g>
</g>
<g>
	<g>
		<path d="M451.952,160.086c-2.21,0-3.999,1.789-3.999,3.999v7.998c0,2.21,1.789,3.999,3.999,3.999c2.21,0,3.999-1.789,3.999-3.999    v-7.998C455.951,161.875,454.162,160.086,451.952,160.086z" fill="#FFFFFF"/>
	</g>
</g>
<g>
	<g>
		<g>
			<path d="M451.952,316.282c-2.21,0-3.999,1.788-3.999,3.999v16.465c0,2.21,1.789,3.999,3.999,3.999     c2.21,0,3.999-1.789,3.999-3.999v-16.465C455.951,318.07,454.162,316.282,451.952,316.282z" fill="#FFFFFF"/>
			<path d="M451.952,382.148c-2.21,0-3.999,1.789-3.999,4v16.464c0,2.211,1.789,3.999,3.999,3.999c2.21,0,3.999-1.788,3.999-3.999     v-16.464C455.951,383.938,454.162,382.148,451.952,382.148z" fill="#FFFFFF"/>
			<path d="M451.952,349.213c-2.21,0-3.999,1.788-3.999,3.999v16.473c0,2.21,1.789,3.998,3.999,3.998     c2.21,0,3.999-1.788,3.999-3.998v-16.473C455.951,351,454.162,349.213,451.952,349.213z" fill="#FFFFFF"/>
			<path d="M451.952,415.078c-2.21,0-3.999,1.789-3.999,3.999v16.465c0,2.21,1.789,3.999,3.999,3.999     c2.21,0,3.999-1.789,3.999-3.999v-16.465C455.951,416.867,454.162,415.078,451.952,415.078z" fill="#FFFFFF"/>
			<path d="M451.952,184.549c-2.21,0-3.999,1.788-3.999,3.999v16.465c0,2.21,1.789,3.999,3.999,3.999     c2.21,0,3.999-1.789,3.999-3.999v-16.465C455.951,186.337,454.162,184.549,451.952,184.549z" fill="#FFFFFF"/>
			<path d="M451.952,283.344c-2.21,0-3.999,1.789-3.999,3.999v16.473c0,2.211,1.789,3.999,3.999,3.999     c2.21,0,3.999-1.788,3.999-3.999v-16.473C455.951,285.133,454.162,283.344,451.952,283.344z" fill="#FFFFFF"/>
			<path d="M451.952,217.482c-2.21,0-3.999,1.789-3.999,3.999v16.465c0,2.21,1.789,3.999,3.999,3.999     c2.21,0,3.999-1.789,3.999-3.999v-16.465C455.951,219.271,454.162,217.482,451.952,217.482z" fill="#FFFFFF"/>
			<path d="M451.952,250.415c-2.21,0-3.999,1.789-3.999,3.999v16.465c0,2.211,1.789,3.999,3.999,3.999     c2.21,0,3.999-1.788,3.999-3.999v-16.465C455.951,252.204,454.162,250.415,451.952,250.415z" fill="#FFFFFF"/>
		</g>
	</g>
</g>
<g>
	<g>
		<path d="M451.952,448.016c-2.21,0-3.999,1.789-3.999,3.999v7.998c0,2.21,1.789,3.999,3.999,3.999c2.21,0,3.999-1.789,3.999-3.999    v-7.998C455.951,449.805,454.162,448.016,451.952,448.016z" fill="#FFFFFF"/>
	</g>
</g>
<g>
	<g>
		<path d="M451.952,128.094H60.048c-2.21,0-3.999,1.789-3.999,3.999c0,2.21,1.789,3.999,3.999,3.999h391.904    c2.21,0,3.999-1.789,3.999-3.999C455.951,129.883,454.162,128.094,451.952,128.094z" fill="#FFFFFF"/>
	</g>
</g>
<g>
</g>
<g>
</g>
<g>
</g>
<g>
</g>
<g>
</g>
<g>
</g>
<g>
</g>
<g>
</g>
<g>
</g>
<g>
</g>
<g>
</g>
<g>
</g>
<g>
</g>
<g>
</g>
<g>
</g>
</svg>
